<?xml version="1.0" encoding="UTF-8" standalone="no"?>
<!-- Created with Inkscape (http://www.inkscape.org/) -->

<svg
   version="1.1"
   id="svg1"
   width="1066.6667"
   height="542.66669"
   viewBox="0 0 1066.6667 542.66669"
   sodipodi:docname="LOGOSVG1.svg"
   inkscape:version="1.4.2 (f4327f4, 2025-05-13)"
   xmlns:inkscape="http://www.inkscape.org/namespaces/inkscape"
   xmlns:sodipodi="http://sodipodi.sourceforge.net/DTD/sodipodi-0.dtd"
   xmlns="http://www.w3.org/2000/svg"
   xmlns:svg="http://www.w3.org/2000/svg">
  <defs
     id="defs1" />
  <sodipodi:namedview
     id="namedview1"
     pagecolor="#ffffff"
     bordercolor="#000000"
     borderopacity="0.25"
     inkscape:showpageshadow="2"
     inkscape:pageopacity="0.0"
     inkscape:pagecheckerboard="0"
     inkscape:deskcolor="#d1d1d1"
     inkscape:zoom="1.114084"
     inkscape:cx="483.35671"
     inkscape:cy="219.4628"
     inkscape:window-width="1858"
     inkscape:window-height="1057"
     inkscape:window-x="1974"
     inkscape:window-y="-8"
     inkscape:window-maximized="1"
     inkscape:current-layer="g1" />
  <g
     inkscape:groupmode="layer"
     inkscape:label="Image"
     id="g1"
     transform="translate(-0.89759835,-0.89759835)">
    <g
       id="g2"
       transform="translate(0.23766108,4.428688)"
       inkscape:label="g2"
       style="display:inline">
      <path
         style="display:inline;fill:#FFF"
         d="m 68.43574,532.87149 c -1.466666,-1.46667 -2.666667,-3.63818 -2.666667,-4.82559 0,-1.1874 2.103302,-5.62132 4.674004,-9.85315 2.570701,-4.23184 5.542546,-10.15596 6.6041,-13.16472 l 1.930096,-5.47048 -3.604099,-0.73406 c -1.982255,-0.40374 -8.704101,-1.98877 -14.937434,-3.5223 -6.233334,-1.53353 -15.625734,-4.80756 -20.872,-7.27563 l -9.538666,-4.48741 -9.794669,-0.0196 -9.794669,-0.0197 -3.1942073,-1.64701 c -1.756814,-0.90585 -3.7000651,-3.03103 -4.3183358,-4.72261 l -1.1241286,-3.07561 3.2577297,-3.25773 3.2577296,-3.25773 h 2.8699244 2.869925 l -0.95392,-2.33333 c -0.524656,-1.28333 -1.558608,-4.43333 -2.29767,-7 l -1.3437507,-4.66667 0.6647317,-8.66666 0.664732,-8.66667 2.966835,-7.7934 c 1.631759,-4.28637 6.631536,-13.28637 11.110615,-20 l 8.14378,-12.2066 16.713007,-16.66667 c 9.192154,-9.16667 20.790091,-19.9434 25.773192,-23.94831 l 9.060186,-7.28164 -3.060185,-1.15697 c -7.032727,-2.65889 -23.635912,-4.95508 -45.18528,-6.24906 l -22.952099,-1.3782 -1.862149,-1.54545 -1.8621503,-1.54545 0.4007443,-3.31298 c 0.220409,-1.82214 1.300744,-3.76978 2.400744,-4.3281 1.1,-0.55832 13.700001,-1.69305 28.000002,-2.52162 14.300001,-0.82858 30.90604,-2.32693 36.902307,-3.32968 5.996268,-1.00275 14.269089,-2.80193 18.384046,-3.99818 l 7.481739,-2.17501 10.16847,-9.61467 c 5.59266,-5.28808 14.80717,-15.41685 20.47669,-22.5084 5.66953,-7.09154 14.31565,-18.64154 19.21361,-25.66667 l 8.90538,-12.77295 h 2.96722 c 1.63197,0 3.68721,0.72 4.56721,1.6 0.88,0.88 1.6,2.77784 1.6,4.21742 0,1.43958 -3.25157,8.06958 -7.22572,14.73333 -8.21349,13.77218 -20.84255,38.4921 -20.06321,39.27143 0.28518,0.28518 4.89185,-2.19006 10.23705,-5.50052 10.64918,-6.59541 44.83787,-26.01277 58.0825,-32.98779 l 8.36395,-4.4047 7.41192,-10.5776 c 4.07656,-5.81769 7.0306,-10.95893 6.56454,-11.42499 -1.53788,-1.53788 -10.5586,-0.0484 -15.75169,2.60096 l -5.10432,2.60403 -2.59226,-0.82275 c -1.42574,-0.45251 -3.22485,-2.00478 -3.99803,-3.44948 l -1.40579,-2.62673 0.80874,-2.5481 c 0.4448,-1.40146 1.95007,-2.91035 3.34502,-3.35309 l 2.5363,-0.80499 6.3955,1.84418 6.39551,1.84418 4.50569,-0.97424 c 2.47812,-0.53584 5.01894,-1.78417 5.64625,-2.77407 0.62731,-0.98989 1.14975,-3.40378 1.16098,-5.36418 l 0.0204,-3.56436 -3.30256,-3.92487 -3.30256,-3.92487 -7.03077,-3.17744 -7.03078,-3.17743 -14.66666,-0.0544 c -8.06667,-0.0299 -16.02325,-0.52243 -17.68129,-1.09449 l -3.01463,-1.04011 -1.98537,-3.83929 c -1.09196,-2.11162 -1.98538,-4.98818 -1.98538,-6.39237 0,-1.40419 1.20731,-4.08791 2.68291,-5.96384 l 2.68292,-3.41077 3.90555,-0.85781 3.90555,-0.8578 2.9119,1.5584 c 1.60154,0.85712 5.5161,3.54624 8.69902,5.97581 3.18292,2.42958 9.25701,5.71567 13.49798,7.30242 l 7.71086,2.885 8.83778,0.74093 8.83778,0.74093 9.66786,-2.93653 9.66786,-2.93652 5.60182,0.34449 5.60182,0.34448 21.21419,-19.25427 c 11.6678,-10.58985 25.42019,-23.27961 30.56086,-28.19945 l 9.34668,-8.94517 -9.33333,-9.1416 -9.33333,-9.1416 -8.66667,-4.22838 c -4.76667,-2.32561 -12.7965,-5.08004 -17.84408,-6.12094 l -9.1774,-1.89256 -3.25552,-3.25551 -3.25551,-3.25552 -0.73765,-5.49954 -0.73764,-5.499546 4.7039,-4.703899 4.7039,-4.703898 5.13333,0.02965 5.13333,0.02965 2.94337,2.303686 c 1.61886,1.267027 5.33079,6.015036 8.24875,10.551131 l 5.30537,8.247446 7.75126,6.10194 c 4.26319,3.35607 10.92376,7.29472 14.80127,8.75256 3.87751,1.45784 8.97751,2.64837 11.33334,2.64563 l 4.28331,-0.005 4.33334,-2.64209 4.33333,-2.64208 v -4.63987 -4.63987 l -4.20709,-4.79162 c -2.3139,-2.63538 -6.43683,-5.929142 -9.16206,-7.319453 l -4.95497,-2.527836 -0.79247,-3.030385 -0.79246,-3.030384 1.919,-2.928769 c 1.05546,-1.610823 3.16437,-3.324032 4.68648,-3.807131 l 2.76747,-0.878362 3.20574,2.100481 3.20574,2.100481 0.90925,5.01009 c 0.50008,2.755549 1.96973,7.11009 3.26589,9.676758 1.29615,2.56667 3.94463,6.14907 5.88552,7.9609 l 3.52889,3.29423 4.26754,-0.36222 c 2.34714,-0.19922 8.16753,0.55951 12.9342,1.68606 4.76667,1.12656 12.56667,2.03608 17.33334,2.02115 8.84068,-0.0277 18.27209,-1.71189 32.83454,-5.86345 l 8.16788,-2.32855 3.51451,1.84144 3.51452,1.84144 15.71217,-15.712169 15.71216,-15.712166 h 4.38167 4.38167 l 12.22377,11.545435 c 6.72308,6.349989 13.5708,13.09999 15.21716,15.00001 l 2.99338,3.45456 0.007,21.7562 0.007,21.75621 4.66667,4.40123 4.66667,4.40124 v 2.84256 c 0,1.56341 0.5338,2.84256 1.18624,2.84256 0.65243,0 8.60243,-3.76834 17.66666,-8.37409 9.06424,-4.60575 21.34037,-11.50575 27.28029,-15.33333 l 10.79985,-6.95924 h 3.90013 3.90012 l 12.63336,9.28773 c 6.94834,5.10826 13.38335,9.30826 14.30002,9.33334 l 1.66667,0.0456 v -9.4359 -9.43589 l -3.66667,-3.58999 c -2.01667,-1.9745 -5.94629,-5.44007 -8.73249,-7.70128 l -5.06581,-4.11129 8.05781,-1.70998 c 4.4318,-0.9405 8.89295,-2.37877 9.91367,-3.19616 1.02072,-0.8174 3.48016,-6.58618 5.46542,-12.81951 l 3.60957,-11.333338 3.2836,-3 3.2836,-3 h 3.95693 3.95692 l 11.01776,10.577484 11.01775,10.577494 23.28431,-3.92033 c 27.80668,-4.681751 75.11154,-10.567981 84.92985,-10.567981 3.86162,0 7.02112,-0.330593 7.02112,-0.734651 0,-0.404058 -2.46096,-6.554059 -5.46881,-13.666668 -3.00784,-7.112608 -11.40784,-25.170905 -18.66667,-40.129547 -7.25882,-14.958642 -13.19785,-28.21565 -13.19785,-29.4600174 0,-1.2443677 1.20243,-3.3506778 2.67208,-4.680689 l 2.67208,-2.4182022 3.04471,1.3872613 3.04471,1.3872613 6.29162,10.654678 c 10.23474,17.332244 34.52539,53.547819 43.23706,64.463278 l 8.0896,10.136039 5.14074,0.849287 c 2.8274,0.467108 10.68693,0.855891 17.46561,0.863962 l 12.32487,0.01467 10.6235,-9.361297 C 867.46101,72.409265 890.10737,48.38061 908.5542,26.814245 l 10.78553,-12.60946 h 3.18434 3.18434 l 2.19061,3.343285 2.1906,3.343285 -14.62836,22.323383 c -8.0456,12.27786 -16.74982,25.923382 -19.34271,30.323383 -5.5657,9.444692 -11.682,21.472224 -11.682,22.972327 0,0.583537 4.05,2.219922 9,3.636412 4.95,1.41649 12.93477,4.54285 17.74394,6.94747 l 8.74393,4.37204 6.15061,6.06373 c 3.38284,3.33505 7.35548,8.6012 8.8281,11.70254 1.47263,3.10135 3.08922,9.08882 3.59243,13.30548 0.50321,4.21667 1.01231,7.66667 1.13134,7.66667 0.11902,0 10.09989,2.06574 22.1797,4.59052 20.00362,4.18094 73.3007,13.94303 87.9632,16.11165 3.3,0.48808 7.35,1.7436 9,2.79003 l 3,1.90261 -0.02,2.96926 c -0.011,1.6331 -0.5579,3.81848 -1.2149,4.85642 l -1.1946,1.88716 -5.1183,-0.19134 c -2.8151,-0.10524 -10.8184,-0.80107 -17.7851,-1.54629 -21.5595,-2.3062 -56.9837,-5.26151 -79.99994,-6.67409 -12.1,-0.74261 -23.03172,-1.35299 -24.29271,-1.3564 l -2.2927,-0.006 -6.88542,10.20377 -6.88543,10.20376 -15.36073,15.8184 -15.36072,15.81841 9.76752,21.6445 c 5.37213,11.90448 21.38967,44.7218 35.59452,72.92739 l 25.827,51.28289 -0.389,2.68374 -0.389,2.68373 -3.2489,1.61375 -3.24889,1.61375 -2.08444,-1.1184 c -1.14644,-0.61512 -4.73658,-5.82629 -7.97808,-11.58037 -9.21369,-16.35549 -48.55551,-81.85704 -61.14074,-101.79531 -6.24897,-9.9 -12.12666,-18.8326 -13.06153,-19.85022 l -1.69976,-1.85021 -12.4355,9.28391 c -15.6316,11.67001 -35.05253,24.6335 -59.4355,39.67325 -10.45001,6.44571 -19.00001,12.01539 -19.00001,12.37708 0,0.36168 2.75524,7.04204 6.12274,14.84523 3.36751,7.8032 7.4766,15.58308 9.13131,17.28863 l 3.00856,3.101 4.65588,-4.43434 4.65587,-4.43433 2.32996,-6.66667 c 1.28148,-3.66666 2.78776,-7.56666 3.34731,-8.66666 0.55954,-1.1 2.48813,-2.1784 4.28576,-2.39645 l 3.26842,-0.39644 2.38394,2.63422 2.38395,2.63423 -0.89257,2.81223 c -0.49092,1.54673 -3.17025,4.25007 -5.95409,6.00743 -2.78384,1.75736 -6.33626,4.81577 -7.89428,6.79647 -1.55801,1.98069 -2.83275,4.69697 -2.83275,6.03618 0,1.3392 1.31313,3.65829 2.91808,5.15352 l 2.91808,2.71861 6.08192,-0.0293 6.08192,-0.0293 5.64255,-2.5614 c 3.10341,-1.40877 8.66976,-5.39299 12.36967,-8.85382 3.69991,-3.46084 8.05431,-8.65385 9.67643,-11.54004 l 2.94932,-5.2476 3.6148,-1.86929 c 1.98814,-1.02811 5.17187,-1.86928 7.07496,-1.86928 h 3.46015 l 3.27273,3.27272 3.27272,3.27273 v 5.14252 5.14253 l -2.70356,2.90194 c -1.48697,1.59607 -4.33697,3.24306 -6.33334,3.65998 -10.68604,2.23168 -15.80481,4.08717 -22.69119,8.2253 -4.18288,2.51355 -9.03656,5.87784 -10.78595,7.47619 -1.74939,1.59835 -4.89939,5.24611 -7,8.10614 l -3.81929,5.20005 -0.0424,24.13328 -0.0424,24.13329 -1.74375,2.29572 c -0.95906,1.26264 -9.06727,5.67084 -18.01824,9.79599 l -16.27449,7.50027 -3.37983,-0.84829 -3.37984,-0.84828 -17.84366,-16.68931 -17.84365,-16.6893 -2.0492,4.90443 c -1.12706,2.69744 -2.04921,5.38512 -2.04921,5.97263 0,0.58751 -1.57147,2.93579 -3.49215,5.21839 -1.92069,2.28261 -5.07859,4.97057 -7.01757,5.97325 -1.93897,1.00269 -6.37258,2.25002 -9.85245,2.77186 l -6.32704,0.9488 -5.13452,3.71943 c -2.82399,2.04569 -6.36403,5.7268 -7.86676,8.18025 -1.50272,2.45345 -3.44293,7.16082 -4.31157,10.46082 -0.86864,3.3 -2.51652,7.05 -3.66196,8.33334 -1.14544,1.28333 -3.39663,2.33333 -5.00265,2.33333 -1.60601,0 -3.91302,-1.09724 -5.12668,-2.43832 -2.28809,-2.52831 -2.89072,-7.79934 -1.18623,-10.37564 0.53877,-0.81434 2.84051,-2.43369 5.11499,-3.59855 2.27447,-1.16487 6.02447,-4.26946 8.33333,-6.89911 l 4.19793,-4.78117 v -3.82374 -3.82373 l -9.41621,-2.86009 -9.4162,-2.86008 -2.91713,0.90129 c -6.62994,2.04843 -13.80304,6.57935 -20.61416,13.02103 -3.97431,3.75874 -8.72676,9.39489 -10.561,12.52478 -1.83423,3.12988 -4.85746,6.88829 -6.71828,8.35202 l -3.38332,2.66131 h -5.05122 -5.05122 l -4.05696,-3.41371 -4.05696,-3.41371 -0.80047,-4.26683 -0.80046,-4.26683 1.36228,-3.58306 c 0.74925,-1.97069 2.85244,-4.55946 4.67376,-5.75283 1.82132,-1.19337 7.18449,-2.98011 11.91815,-3.97052 4.73367,-0.99041 11.20687,-3.12727 14.38489,-4.74858 3.17802,-1.6213 8.07964,-4.47083 10.89248,-6.33228 l 5.11426,-3.38446 -2.19928,-1.23077 c -1.2096,-0.67693 -12.30146,-5.33278 -24.64859,-10.34634 -12.34712,-5.01356 -24.33321,-10.08976 -26.63575,-11.28045 l -4.18644,-2.16489 -23.58276,9.35206 c -26.29282,10.42677 -73.49462,27.55763 -98.9161,35.89944 -29.85186,9.79559 -65.35323,20.2368 -98.66667,29.01858 -33.92943,8.94416 -81.51493,19.71527 -108.00001,24.44608 -26.64208,4.75886 -60.70564,9.43512 -82.8684,11.37621 l -21.41608,1.87569 -1.93337,2.76027 -1.93337,2.76027 h -3.48607 c -1.91734,0 -4.45524,-0.87709 -5.63977,-1.94908 l -2.15371,-1.94907 -23.21104,-0.50562 -23.21104,-0.50563 -5.632458,5.19182 c -3.097852,2.8555 -8.198257,8.61012 -11.334233,12.78803 -3.135976,4.17792 -7.196736,9.24621 -9.023911,11.26288 -1.827175,2.01667 -4.409882,3.66667 -5.739349,3.66667 -1.329466,0 -3.617212,-1.2 -5.083879,-2.66667 z m 10.637721,-10.33333 c 2.432708,-3.48334 8.38442,-10.43563 13.226027,-15.44954 4.841607,-5.01392 12.087442,-11.24251 16.101852,-13.84133 4.01441,-2.59882 10.43935,-5.80559 14.27764,-7.12615 6.12988,-2.10899 19.94882,-4.57087 40.75677,-7.26094 3.48333,-0.45032 6.33333,-0.4718 6.33333,-0.0477 0,0.42408 -2.74131,5.28691 -6.0918,10.80629 -3.35049,5.51939 -5.86719,10.70907 -5.59267,11.53264 0.27453,0.82357 4.34575,-3.93431 9.04716,-10.57307 l 8.54802,-12.07047 6.71131,-0.80661 c 3.69123,-0.44363 10.76132,-0.81182 15.71132,-0.81819 l 9,-0.0116 v -1.33334 -1.33333 l -7.66667,-0.0988 c -4.21667,-0.0544 -10.22621,-0.50436 -13.35453,-1 l -5.68786,-0.90117 9.17324,-11.33333 c 5.04528,-6.23334 13.13067,-15.11002 17.96753,-19.72596 l 8.7943,-8.39262 8.46413,-3.83782 c 4.65527,-2.1108 12.26555,-4.82287 16.91173,-6.02681 4.64619,-1.20395 14.16311,-2.60025 21.14871,-3.1029 l 12.70111,-0.91389 0.48936,-1.47896 0.48937,-1.47896 -11.77603,-0.67144 -11.77604,-0.67144 -5.93917,-2.65603 c -3.26655,-1.46081 -7.06887,-3.92844 -8.4496,-5.4836 l -2.51042,-2.82757 0.66614,-5.90998 0.66614,-5.90999 7.29587,-15.12268 c 4.01273,-8.31748 10.95303,-21.26177 15.42289,-28.76509 l 8.12701,-13.64241 -1.17912,-0.72874 -1.17913,-0.72874 -6.5507,9.70448 c -11.09393,16.43502 -27.78215,37.1777 -39.13039,48.63725 l -10.82658,10.93277 -7.47898,3.59419 c -4.11344,1.9768 -11.67898,4.72785 -16.81231,6.11345 -5.13334,1.38559 -14.13334,2.83678 -20.00001,3.22485 -5.86666,0.38807 -12.0412,0.98486 -13.72119,1.3262 -6.07844,1.23501 -1.43812,2.84914 10.07844,3.50579 l 11.7644,0.67077 6.16006,2.72489 6.16005,2.72488 2.17329,3.31687 2.1733,3.31686 -0.83748,3.80786 c -1.35375,6.15522 -6.01178,17.81322 -10.95968,27.42961 l -4.60763,8.95509 -6.19178,-0.71012 c -11.48774,-1.31751 -27.30956,-4.69819 -31.05684,-6.63599 -2.0474,-1.05875 -4.40957,-3.20871 -5.24926,-4.77768 l -1.5267,-2.85267 0.80579,-5.87889 0.80579,-5.87889 4.80459,-9.58797 c 2.64252,-5.27339 5.40587,-10.3178 6.14078,-11.20981 0.7349,-0.89201 1.1043,-2.31747 0.8209,-3.16769 l -0.51528,-1.54584 -9.36141,11.85154 c -5.14878,6.51836 -12.62362,14.61259 -16.61077,17.98718 -3.98716,3.3746 -9.77217,7.70722 -12.8556,9.62805 -3.08343,1.92083 -9.916728,4.68691 -15.185108,6.14686 -5.26838,1.45994 -17.445576,3.53007 -27.060436,4.60028 -9.61486,1.07022 -25.431565,2.35229 -35.148232,2.84904 -9.716668,0.49675 -17.6666683,1.34325 -17.6666683,1.88109 0,0.53785 8.1625643,1.36938 18.1390323,1.84784 9.976468,0.47847 24.526469,1.81441 32.333336,2.96876 7.806867,1.15435 16.707753,3.206 19.779748,4.55921 l 5.585444,2.46038 0.856449,4.56527 0.856449,4.56526 -1.547474,5.87897 c -0.851111,3.23344 -3.899963,10.20071 -6.775227,15.48283 -2.875264,5.28213 -5.227752,9.93213 -5.227752,10.33334 0,0.40121 0.498288,0.72947 1.107307,0.72947 0.609018,0 3.097704,-2.85 5.530413,-6.33333 z m 73.052859,-25.66667 1.66536,-2.66667 -18.34464,0.0297 -18.34463,0.0297 -3.33333,2.60737 -3.33334,2.60737 20.01261,0.0297 20.01261,0.0297 z m 51.98013,-1.36828 c 13.01445,-1.48589 31.20618,-3.85616 40.42607,-5.26728 25.10121,-3.84175 67.5261,-12.45302 101.23657,-20.54866 16.50001,-3.96252 42.00001,-10.58565 56.66668,-14.71809 14.66666,-4.13244 41.06667,-12.08309 58.66667,-17.66813 17.6,-5.58503 44,-14.48636 58.66667,-19.78073 32.37465,-11.68661 72.95061,-27.27644 74.3695,-28.57377 l 1.03617,-0.9474 -3.03617,-1.33014 -3.03616,-1.33013 -34.00001,13.06694 c -18.7,7.18682 -52,19.04442 -74,26.35023 -22,7.3058 -51.70001,16.65997 -66.00001,20.78704 -28.31996,8.17332 -72.91895,19.55095 -101.33334,25.85111 -21.6283,4.79552 -64.41899,12.5795 -84.66667,15.40156 -13.00815,1.81304 -51.77014,6.07573 -55.24851,6.07573 -0.72838,0 -1.96656,1.2 -2.7515,2.66667 l -1.42715,2.66666 h 5.38427 c 2.96135,0 16.03246,-1.21572 29.04692,-2.70161 z m -125.25366,-2.29839 -0.445148,-2.33333 -9.319285,-2.29005 c -10.335007,-2.53965 -30.57347,-5.05171 -28.994092,-3.59884 1.506884,1.38618 16.171715,6.48703 24.42747,8.49659 3.986037,0.97025 8.941334,1.83044 11.011771,1.91153 l 3.764433,0.14744 z M 24.435737,466.9477 c 0,-0.32475 -1.156005,-2.57475 -2.5689,-5 -1.412895,-2.42525 -2.966107,-6.58725 -3.451583,-9.2489 l -0.882684,-4.83935 2.16825,-8.49398 2.16825,-8.49398 5.385662,-9.42992 c 2.962115,-5.18646 10.390492,-15.43098 16.507506,-22.7656 l 11.121843,-13.33568 13.195545,-11.492 13.195544,-11.492 1.460835,-4.75984 1.460835,-4.75983 -5.151199,4.07982 c -2.833159,2.24391 -11.189513,9.60175 -18.569675,16.35077 -7.380162,6.74902 -17.657136,17.37094 -22.83772,23.60427 -5.180584,6.23334 -11.684657,15.23334 -14.453496,20.00001 -2.768839,4.76666 -6.170074,11.66666 -7.5583,15.33333 l -2.524047,6.66667 0.061,9.33333 0.06101,9.33333 2.204292,5 2.204293,5 h 3.401369 c 1.870753,0 3.401369,-0.2657 3.401369,-0.59045 z m 257.829413,-32.769 c 11.6395,-0.7425 29.9395,-2.57741 40.66667,-4.07757 10.72717,-1.50017 28.50394,-4.52468 39.50394,-6.72114 11,-2.19645 31.47403,-6.89796 45.49783,-10.44779 14.02381,-3.54983 37.52079,-10.13763 52.21551,-14.63956 23.43313,-7.17905 49.90939,-16.39084 82.62001,-28.74567 5.31667,-2.00812 9.66667,-4.17017 9.66667,-4.80456 0,-0.6344 -1.35,-1.49054 -3,-1.90253 l -3,-0.74908 -21.33334,8.15232 c -11.73333,4.48378 -31.07965,11.38821 -42.99181,15.34318 -11.91216,3.95498 -33.34206,10.53407 -47.62201,14.62021 -14.27994,4.08614 -34.91582,9.48461 -45.85752,11.99661 -10.94169,2.51199 -30.31178,6.40845 -43.04466,8.65879 -12.73287,2.25034 -31.25068,4.96666 -41.15068,6.03628 l -18,1.94475 -22.66667,0.11571 -22.66667,0.11571 -4.66667,1.74738 -4.66666,1.74738 2,0.78812 c 1.1,0.43346 6.2,0.98398 11.33333,1.22337 5.13333,0.23938 10.83333,0.55064 12.66667,0.69167 1.83333,0.14103 12.85656,-0.35108 24.49606,-1.09358 z m 20.83727,-10.6608 c 8.43334,-0.75426 24.33334,-2.88776 35.33334,-4.74112 11,-1.85335 30.76005,-5.79431 43.91121,-8.75768 13.15117,-2.96338 35.35117,-8.59638 49.33334,-12.51778 27.06924,-7.59176 74.73126,-23.40333 98.48221,-32.67085 l 14.39341,-5.61625 -2.39341,-2.64039 -2.39341,-2.64039 -0.43411,-18.53098 -0.43411,-18.53098 h -1.1277 c -0.62023,0 -12.12488,6.33674 -25.56589,14.08164 l -24.43819,14.08164 -3.33334,0.0843 c -4.99907,0.1264 -48.10807,-6.88876 -52.38429,-8.52453 -2.04469,-0.78215 -4.3639,-2.62968 -5.1538,-4.10562 -0.7899,-1.47594 -1.81697,-6.81601 -2.28238,-11.86683 l -0.8462,-9.1833 -8.26213,11.71636 c -4.54417,6.444 -13.30923,17.71636 -19.47791,25.0497 -6.16868,7.33333 -17.15072,19.06202 -24.40454,26.06376 -7.25382,7.00173 -17.68876,16.10374 -23.18876,20.22669 -5.5,4.12294 -14.2,9.85551 -19.33333,12.73903 -5.13334,2.88353 -13.53055,6.90948 -18.66047,8.94657 -5.12993,2.03708 -15.02993,4.848 -22.00001,6.24648 -6.97007,1.39848 -13.27286,2.80511 -14.00619,3.12584 -1.35907,0.59441 1.66454,0.37973 28.66666,-2.03529 z M 68.177734,404.92857 c 4.551932,-6.56861 12.985853,-17.81861 18.742047,-25 5.756194,-7.1814 14.902089,-17.3137 20.324219,-22.51623 l 9.85841,-9.45914 7.76001,-2.8904 c 4.26801,-1.58972 12.96801,-3.76703 19.33334,-4.83846 14.60339,-2.45808 40.25764,-4.65453 54.57332,-4.67243 l 11,-0.0138 v -1.33333 c 0,-0.73334 -0.15,-1.33546 -0.33333,-1.33806 -0.18333,-0.003 -9.93333,-0.60874 -21.66667,-1.34697 -11.73333,-0.73824 -26.50274,-2.28363 -32.8209,-3.43422 l -11.48757,-2.09197 -4.33726,-2.63764 -4.33727,-2.63765 0.81983,-5.1269 c 0.4509,-2.81979 2.83723,-9.83533 5.30296,-15.59008 4.31582,-10.07268 14.9376,-30.02509 21.61572,-40.60392 1.76389,-2.79418 3.36549,-5.55558 3.55911,-6.13646 0.19363,-0.58087 -0.24795,-1.08522 -0.98129,-1.12076 -0.73333,-0.0356 -4.88281,5.06445 -9.22107,11.33333 -4.33826,6.26888 -12.41536,17.09796 -17.94912,24.06463 -5.53376,6.96666 -14.08536,16.63946 -19.00357,21.49511 l -8.94219,8.82844 -6.05539,2.93136 c -3.33047,1.61226 -11.628763,4.07324 -18.44065,5.46885 -10.93427,2.2402 -20.002044,3.15574 -60.72135,6.13082 l -9.666667,0.70627 v 1.21958 1.21957 h 10.525395 c 5.788967,0 16.738968,0.606 24.333335,1.34666 7.594367,0.74067 18.176989,2.28583 23.516937,3.4337 l 9.708997,2.08704 3.504349,3.01431 3.504348,3.01431 -1.628115,6.55199 c -0.895463,3.6036 -4.485687,12.55199 -7.978276,19.88532 -3.492589,7.33334 -10.055943,19.46321 -14.585231,26.95527 -4.529288,7.49206 -8.235069,13.94206 -8.235069,14.33333 0,0.39127 0.479795,0.71141 1.066211,0.71141 0.586416,0 4.790519,-5.37432 9.34245,-11.94292 z m 115.512536,-1.23231 c -0.49296,-1.18696 -1.44309,-4.46672 -2.11139,-7.28836 l -1.2151,-5.13025 0.90394,-4.86975 c 0.49716,-2.67836 1.98261,-7.39776 3.30099,-10.48756 1.31838,-3.08979 4.5278,-8.78178 7.13205,-12.64887 l 4.73499,-7.03106 v -3.84772 -3.84773 l -2.0137,1.67123 c -1.10753,0.91917 -4.65205,5.64263 -7.8767,10.49659 -3.22465,4.85395 -7.17799,12.72537 -8.78521,17.49204 l -2.9222,8.66666 0.62136,6.66667 c 0.34174,3.66667 1.26832,8.26911 2.05905,10.22765 l 1.4377,3.56098 2.81526,-0.73621 2.81526,-0.73621 z m 11.56667,-1.68504 6.64886,-2.86027 -0.86109,-2.13973 c -0.4736,-1.17686 -1.69787,-4.83974 -2.7206,-8.13974 l -1.8595,-6 -0.0144,-9.82992 -0.0144,-9.82993 -1.76655,1.46611 c -0.9716,0.80635 -3.47794,4.84861 -5.56965,8.98279 l -3.80309,7.51669 -0.58307,7.03105 -0.58307,7.03104 1.58945,4.81609 c 0.8742,2.64885 1.88169,4.81609 2.23887,4.81609 0.35719,0 3.64142,-1.28712 7.2983,-2.86027 z m 597.67891,-21.76273 c 7.05831,-3.27598 12.83328,-6.34852 12.83328,-6.82786 0,-0.47934 -6.75,-7.88657 -15,-16.46052 l -15,-15.589 -25.19301,-57.91648 c -13.85616,-31.85407 -26.25465,-60.04161 -27.5522,-62.63898 l -2.35919,-4.7225 -22.22198,-19.27751 c -12.22209,-10.60262 -22.70715,-19.45534 -23.30013,-19.67272 -1.31986,-0.48382 -20.04017,15.50668 -20.04017,17.1179 0,0.63385 15.2831,28.31942 33.96243,61.52351 l 33.96243,60.37106 -4.11203,4.24255 c -2.26163,2.3334 -3.89472,4.86401 -3.6291,5.62358 0.58189,1.66399 62.79335,60.17937 63.98301,60.18168 0.45836,8.9e-4 6.60836,-2.67873 13.66666,-5.95471 z m -73.7865,-5.40126 3.91447,-2.02425 0.85074,-3.38962 c 0.46791,-1.86428 0.53507,-5.74317 0.14924,-8.61974 -0.38583,-2.87657 -2.0066,-7.92608 -3.6017,-11.22113 -1.59511,-3.29504 -8.73942,-14.85524 -15.87626,-25.68933 -7.13684,-10.83409 -16.11406,-24.92116 -19.94939,-31.30459 -3.83533,-6.38344 -9.89822,-17.78344 -13.47308,-25.33334 -3.57486,-7.54989 -9.60677,-22.12708 -13.40425,-32.39375 -3.79747,-10.26667 -8.86141,-25.46741 -11.25319,-33.77943 l -4.34869,-15.11277 -5.86073,-3.48812 c -3.2234,-1.91847 -15.8771,-10.56772 -28.11934,-19.22057 -12.24224,-8.65285 -22.74224,-15.71961 -23.33334,-15.70392 -0.59109,0.0157 -5.27472,2.75812 -10.40805,6.09429 -9.67231,6.28606 -39.41227,21.62751 -46.99415,24.24208 l -4.32748,1.4923 1.19607,3.0714 c 0.65783,1.68927 7.5552,18.60099 15.32748,37.58159 7.77227,18.98061 14.13141,34.6367 14.13141,34.79133 0,0.15462 -2.99884,2.32504 -6.66409,4.82314 -3.66525,2.49811 -6.65223,4.84201 -6.63773,5.20868 0.0145,0.36667 13.91422,10.56667 30.88826,22.66667 16.97404,12.1 31.32801,22.189 31.89771,22.41999 0.5697,0.231 8.08713,-2.619 16.7054,-6.33333 8.61827,-3.71433 16.32321,-6.75333 17.12208,-6.75333 0.79887,0 3.76131,3.09257 6.5832,6.87237 2.82189,3.77981 6.84996,10.14074 8.95127,14.1354 l 3.82058,7.26302 v 3.76937 3.76937 l -2.09524,2.09523 -2.09524,2.09524 h -6.7359 -6.73589 l -13.89992,-4.6512 c -7.64495,-2.55816 -24.52094,-9.51603 -37.5022,-15.46193 -12.98126,-5.9459 -25.23182,-11.47667 -27.22347,-12.29061 l -3.62118,-1.47989 -3.36647,3.16263 -3.36646,3.16263 6.32098,4.20354 c 10.48531,6.97287 29.62333,17.52605 45.75381,25.22978 20.30383,9.69687 76.53617,32.21952 88.41811,35.41396 5.21532,1.40213 12.9622,2.58573 17.21528,2.63021 l 7.73288,0.0809 z M 615.78124,270.12369 c -5.12666,-3.58203 -9.58494,-7.27915 -9.90729,-8.21583 -0.32235,-0.93668 -4.63221,-16.09865 -9.57746,-33.69327 -4.94526,-17.59462 -8.83992,-32.14168 -8.6548,-32.3268 0.18512,-0.18512 2.62511,1.36979 5.4222,3.45536 l 5.08562,3.79193 12.24812,33.20153 c 6.73647,18.26085 12.99949,34.60292 13.91783,36.31573 0.91834,1.71281 1.4711,3.30993 1.22835,3.54917 -0.24275,0.23923 -4.6359,-2.49579 -9.76257,-6.07782 z m -322.41262,99.48078 c 6.7464,-1.82172 16.27872,-5.13159 21.18293,-7.35526 4.90421,-2.22368 13.78443,-7.3249 19.73381,-11.33606 5.94939,-4.01116 15.52903,-11.4411 21.28809,-16.51097 5.75907,-5.06987 15.87462,-15.13832 22.47902,-22.37432 6.60439,-7.23601 15.47541,-17.68292 19.71338,-23.21536 4.23797,-5.53245 11.11114,-15.28385 15.2737,-21.66978 4.16257,-6.38594 10.17467,-17.1594 13.36023,-23.94102 3.18556,-6.78162 6.49501,-15.80731 7.35432,-20.05708 l 1.56239,-7.72687 -0.93136,-5.60647 c -0.51225,-3.08356 -1.70922,-7.10647 -2.65993,-8.9398 -0.95072,-1.83334 -3.72977,-5.25255 -6.17567,-7.59826 -2.4459,-2.3457 -8.80619,-6.24571 -14.13398,-8.66666 l -9.68688,-4.40175 18.81436,-27.73468 18.81435,-27.73468 -0.8546,-3.40502 -0.85461,-3.40502 -2.93953,0.82619 c -1.61675,0.45441 -7.73954,2.15664 -13.60621,3.78275 l -10.66666,2.95655 -14.66667,-0.14545 -14.66667,-0.14545 -6.56195,-2.10257 -6.56195,-2.10258 -1.5268,0.93831 c -0.83975,0.51607 -6.36417,6.33831 -12.2765,12.93832 -5.91234,6.6 -15.77711,16.8 -21.92172,22.66666 -6.14462,5.86667 -18.47006,17.14893 -27.38987,25.07169 -8.91981,7.92277 -22.4151,20.84809 -29.98953,28.72295 -7.57443,7.87485 -18.70689,20.65656 -24.73881,28.4038 -6.03192,7.74724 -14.6486,19.94334 -19.14819,27.10244 -4.49958,7.1591 -10.12304,17.29512 -12.49658,22.5245 -2.37353,5.22938 -5.55071,13.10796 -7.06038,17.50796 -1.50967,4.4 -3.16914,10.85 -3.68769,14.33334 l -0.94283,6.33333 h 2.5514 c 1.40326,0 3.27139,0.72 4.15139,1.6 0.88,0.88 1.6,2.86 1.6,4.4 0,1.54 -0.72,3.52 -1.6,4.4 -0.88,0.88 -2.72768,1.6 -4.10594,1.6 h -2.50594 l 0.91644,4.33333 c 0.50404,2.38334 2.06481,6.22536 3.46838,8.53782 1.40358,2.31247 4.97106,6.39001 7.92776,9.0612 2.95669,2.6712 6.86902,5.53708 8.69407,6.36862 l 3.31827,1.51191 2.48829,-2.57311 c 1.36856,-1.4152 7.67872,-9.7731 14.02259,-18.5731 6.34387,-8.8 12.39284,-17.05 13.44215,-18.33334 l 1.90783,-2.33333 h 3.25115 c 1.78813,0 4.194,0.94286 5.34638,2.09524 1.15238,1.15238 2.09524,3.28965 2.09524,4.74949 0,1.45985 -3.81039,9.07349 -8.46752,16.91921 -4.65714,7.84572 -9.52187,16.30382 -10.81051,18.79578 l -2.34299,4.53084 14.47718,-0.85601 14.47717,-0.85601 z m 5.06714,-70.59809 c -2.93334,-0.92769 -7.17843,-2.64871 -9.43354,-3.82449 -2.25511,-1.17577 -6.22029,-4.48446 -8.81151,-7.35263 -2.59122,-2.86817 -5.77541,-8.00117 -7.07598,-11.40665 l -2.36466,-6.19179 0.64523,-10.05409 0.64523,-10.05409 5.74064,-11.58509 5.74064,-11.58509 9.68922,-9.56426 c 5.32908,-5.26034 14.33567,-12.6146 20.01465,-16.34279 5.67898,-3.72819 14.57446,-8.52525 19.76775,-10.66013 5.19328,-2.13488 10.94233,-4.30718 12.77566,-4.82733 l 3.33334,-0.94574 -34.50061,34.63977 -34.5006,34.63976 9.91551,13.15654 c 5.45353,7.23609 13.33309,17.80653 17.51013,23.48987 l 7.59463,10.33333 -5.6762,-0.0892 c -3.12191,-0.0491 -8.0762,-0.84822 -11.00953,-1.77591 z m 28.66667,-0.2317 c 0,-0.53644 2.12548,-8.83411 4.72328,-18.43927 l 4.72329,-17.46393 6.90604,-6.25956 c 3.79833,-3.44276 7.0045,-6.14276 7.12483,-6 0.12034,0.14276 -2.32525,10.38668 -5.43463,22.76427 l -5.65343,22.50471 -1.86136,1.00893 c -1.02374,0.55492 -3.81136,1.42547 -6.19469,1.93457 l -4.33333,0.92563 z m 23.20316,-8.23653 c 0.3939,-1.28334 2.90185,-11.63334 5.57321,-23 2.67136,-11.36667 5.33224,-21.17941 5.91307,-21.80609 0.58083,-0.62668 4.47874,-1.09853 8.66202,-1.04857 l 7.60596,0.0908 5.84532,2.82968 c 3.21492,1.55631 7.0495,4.52079 8.52129,6.58772 l 2.67597,3.75806 v 3.71871 3.71871 l -7.43098,7.19747 -7.43098,7.19747 -13.56902,6.52549 c -7.46296,3.58903 -14.35945,6.53412 -15.32554,6.54466 l -1.75652,0.0192 z m -5.12645,-58.48266 c 1.78461,-6.51787 5.55883,-20.25068 8.38717,-30.51735 l 5.14242,-18.66666 4.75627,-0.40743 4.75626,-0.40743 -5.5626,21.80834 -5.56261,21.80833 -6.60061,7.93243 c -3.63034,4.36283 -7.04171,8.46523 -7.58082,9.11644 -0.53912,0.6512 0.47992,-4.1488 2.26452,-10.66667 z m 24.88549,-24.54619 c 0.39623,-1.11586 1.76354,-6.81586 3.03847,-12.66667 1.27493,-5.8508 2.75548,-11.11696 3.29011,-11.70257 l 0.97205,-1.06475 6.15733,1.06475 6.15732,1.06475 -9.43253,12 c -5.1879,6.6 -9.76343,12.3 -10.16785,12.66667 -0.40442,0.36666 -0.41112,-0.24632 -0.0149,-1.36218 z m 578.37118,163.36218 c 0,-0.36666 -0.3,-0.66666 -0.66667,-0.66666 -0.36667,0 -0.66667,0.3 -0.66667,0.66666 0,0.36667 0.3,0.66667 0.66667,0.66667 0.36667,0 0.66667,-0.3 0.66667,-0.66667 z m -23.01936,-45.64343 c -20.88567,-41.29013 -33.39266,-67.56696 -44.54712,-93.59225 -3.32325,-7.75371 -8.41397,-21.16486 -11.3127,-29.80255 l -5.27042,-15.7049 0.40813,-5.61848 0.40813,-5.61848 3.59827,-1.7166 c 1.97906,-0.94413 8.87906,-2.37633 15.33334,-3.18266 l 11.73506,-1.46606 29.33333,0.81155 c 30.13207,0.83364 65.72462,3.32129 105.00003,7.33869 12.2833,1.25644 22.3333,1.89695 22.3333,1.42337 0,-0.47358 -3.15,-1.23273 -7,-1.68701 -11.8485,-1.39804 -71.13863,-12.43679 -93.81786,-17.46719 -11.81649,-2.62098 -29.07293,-6.84517 -38.34765,-9.38708 -9.27471,-2.54192 -21.50668,-6.54939 -27.18214,-8.9055 l -10.31901,-4.28383 -3.84535,-3.82491 -3.84535,-3.82492 0.74085,-7.17818 0.74086,-7.17818 4.45479,-11.07904 c 2.45014,-6.093467 8.31385,-17.939097 13.03047,-26.32362 4.71663,-8.384523 14.66821,-24.434524 22.11462,-35.666668 7.44642,-11.232145 13.17973,-20.384938 12.74069,-20.33954 -0.43904,0.0454 -5.29825,5.556055 -10.79825,12.245906 -5.5,6.689851 -19.87728,22.303879 -31.9495,34.697839 l -21.9495,22.534474 -10.40215,7.838253 -10.40215,7.838256 -5.21977,1.56388 -5.21978,1.56388 -5.86149,-3.43506 -5.8615,-3.43507 -7.30581,-8.414114 c -4.0182,-4.627764 -10.03715,-12.014116 -13.37544,-16.414116 -5.56923,-7.34046 -24.97575,-36.365579 -37.6952,-56.378349 -2.88326,-4.53651 -5.46898,-8.021507 -5.74605,-7.744437 -0.27707,0.27707 4.3353,10.16766 10.24971,21.97909 5.91441,11.811429 14.28805,29.738773 18.6081,39.838541 4.32004,10.099769 9.4561,23.499733 11.41347,29.777695 l 3.55885,11.41449 -0.4209,5.84629 -0.4209,5.8463 -4.38207,2.94349 c -2.41014,1.61892 -7.38967,3.58851 -11.06563,4.37686 -3.67596,0.78835 -11.85402,1.43337 -18.17348,1.43337 -6.31946,0 -11.17539,0.31454 -10.79095,0.69898 0.38445,0.38445 5.13445,1.92684 10.55556,3.42755 5.42111,1.5007 13.52927,4.47992 18.01814,6.62048 4.48886,2.14055 10.09661,5.84816 12.46166,8.23912 l 4.3001,4.3472 -0.5857,9.33333 -0.5857,9.33334 -4.79666,10.34947 c -2.63817,5.69221 -6.07321,12.14221 -7.63343,14.33333 -1.56021,2.19113 -2.43522,3.98386 -1.94445,3.98386 0.49076,0 4.95901,-3.76515 9.92944,-8.367 l 9.03714,-8.36701 7.18049,-3.63299 7.18048,-3.633 h 5.69445 5.69444 l 3.08235,2.01964 c 1.69529,1.1108 7.29924,7.2608 12.45321,13.66666 5.15397,6.40587 13.87785,18.24704 19.3864,26.31371 5.50855,8.06666 16.27677,24.56666 23.92937,36.66666 13.20719,20.88272 50.82552,83.41273 59.11347,98.25969 2.12655,3.8095 4.12286,6.66995 4.43624,6.35657 0.31338,-0.31338 -8.76802,-19.03024 -20.18088,-41.59302 z M 152.47023,311.94637 c 5.48104,-3.44214 21.28259,-12.69369 35.11456,-20.55899 l 25.14905,-14.30055 2.49802,-4.10767 c 1.37392,-2.25923 2.1499,-4.10768 1.72442,-4.10768 -1.55122,0 -37.69131,20.22129 -56.52053,31.62466 l -19.33334,11.70868 -0.42607,3 c -0.23433,1.65 0.0812,3 0.70116,3 0.61997,0 5.6117,-2.8163 11.09273,-6.25845 z m 633.77345,-17.31892 c 18.68666,-11.20625 47.12164,-30.09112 63.19212,-41.96854 6.78333,-5.01346 12.33333,-9.59658 12.33333,-10.18473 0,-0.58815 -0.65561,-1.72499 -1.45693,-2.5263 l -1.45693,-1.45693 -17.54307,12.81676 c -17.10685,12.49805 -51.83314,35.27029 -65.87641,43.19935 -3.85,2.17377 -7,4.14596 -7,4.38265 0,0.23669 0.3642,1.37941 0.80932,2.53939 0.44513,1.15998 1.10868,2.10905 1.47456,2.10905 0.36588,0 7.35169,-4.00982 15.52401,-8.9107 z M 508.68243,280.02648 c 13.43101,-7.79808 24.90425,-14.61231 25.49609,-15.14274 l 1.07608,-0.96441 -12.24588,-7.19059 -12.24587,-7.19059 0.8544,-26.66667 c 0.46992,-14.66667 1.23167,-33.63383 1.69278,-42.14924 l 0.83838,-15.48257 -17.14123,-8.85076 c -9.42767,-4.86792 -17.69884,-8.85077 -18.38036,-8.85077 -0.68153,0 -8.36857,5.78197 -17.08232,12.84882 -8.71374,7.06685 -16.08801,13.24498 -16.38726,13.72918 -0.29925,0.48419 1.48673,20.95222 3.96884,45.48451 l 4.51293,44.60416 -3.60162,4.28022 c -1.98089,2.35412 -6.16081,7.24836 -9.2887,10.87609 l -5.68708,6.59587 9.02041,1.50963 c 4.96123,0.83029 15.32042,2.62182 23.02042,3.98116 7.7,1.35935 14.71099,2.53578 15.57998,2.61429 0.869,0.0785 12.569,-6.2375 26.00001,-14.03559 z m 251.91023,-45.53052 c 2.21611,-3.13987 5.52946,-8.98565 7.363,-12.99064 l 3.33371,-7.28178 0.69762,-9.80819 0.69762,-9.80818 -3.4188,-6.74667 -3.41879,-6.74667 -5.99724,-4.91428 -5.99723,-4.91428 -9.90366,-3.8456 -9.90366,-3.84561 -12.47139,-2.0226 c -6.85926,-1.11242 -17.12138,-2.02501 -22.80472,-2.02796 l -10.33333,-0.005 v 2.46692 2.46692 l 14.33333,0.78202 c 7.88334,0.43011 17.63334,1.4562 21.66667,2.28021 4.03333,0.82401 11.05805,2.76402 15.61048,4.31114 l 8.27715,2.81294 6.29265,4.77326 6.29265,4.77326 3.20075,6 3.20076,6 -0.48747,8.13011 -0.48747,8.13011 -4.23355,8.53656 c -2.32846,4.6951 -6.95585,11.8323 -10.28309,15.86043 -3.32724,4.02814 -6.04952,8.27814 -6.04952,9.44445 0,1.16631 0.44722,2.56779 0.99382,3.11439 l 0.99383,0.99383 4.40329,-5.10494 c 2.42182,-2.80772 6.21648,-7.67392 8.43259,-10.81379 z m -1.27224,-14.72056 4.44871,-8.76466 -0.008,-8.06963 -0.008,-8.06963 -3.11252,-5.01873 c -1.71189,-2.7603 -5.60838,-6.70751 -8.65887,-8.77157 -3.05049,-2.06407 -7.99603,-4.71064 -10.99009,-5.88128 -2.99406,-1.17064 -9.89406,-3.04154 -15.33334,-4.15756 -5.43927,-1.11602 -16.03959,-2.44679 -23.55625,-2.95727 l -13.66667,-0.92814 0.009,3.85727 0.009,3.85728 21.01317,18.1747 21.01317,18.17469 3.22409,7.82531 c 1.77324,4.30391 4.71287,11.09685 6.5325,15.0954 l 3.30842,7.27011 5.66322,-6.43581 c 3.11478,-3.5397 7.66515,-10.37992 10.11194,-15.20048 z m 138.66654,-9.23726 c 6.99434,-7.15 15.55872,-16.88673 19.03195,-21.63718 3.47324,-4.75046 6.88402,-9.70046 7.57951,-11 l 1.26454,-2.36282 h -3.26321 -3.2632 l -6.39961,9 c -3.51978,4.95 -11.86091,14.7 -18.53583,21.66667 l -12.13623,12.66667 0.51656,2.33333 c 0.28411,1.28334 0.96026,2.33334 1.50255,2.33334 0.54229,0 6.70863,-5.85001 13.70297,-13.00001 z m -223.88593,-60.28102 3.78544,-15.09887 -19.58126,-18.81005 c -10.76969,-10.34553 -20.03513,-18.989737 -20.58986,-19.209342 -0.55472,-0.219605 -3.08172,6.080392 -5.61554,14.000002 l -4.60695,14.39928 20.12603,20.33737 c 11.06931,11.18555 20.70442,20.14457 21.41136,19.90892 0.70693,-0.23564 2.98879,-7.22293 5.07078,-15.52731 z m 261.00144,-6.23095 c 0,-2.66492 -0.69633,-7.16947 -1.54741,-10.0101 -0.85107,-2.84064 -3.68079,-7.65718 -6.28826,-10.70342 -2.60747,-3.04625 -8.33291,-7.86028 -12.7232,-10.69786 l -7.98235,-5.15924 -11.04189,-3.44269 -11.04189,-3.44268 -2.02083,0.77547 c -1.11146,0.4265 -2.02084,1.60524 -2.02084,2.61942 v 1.84395 l 8.60774,2.33001 c 4.73426,1.2815 12.17145,4.01537 16.5271,6.07527 4.35564,2.05989 10.3471,5.93858 13.31435,8.61931 2.96725,2.68074 6.63006,7.42535 8.13957,10.5436 1.50952,3.11824 2.74458,7.5301 2.74458,9.80412 v 4.13459 l 1.66667,0.67251 c 0.91666,0.36989 2.11666,0.71989 2.66666,0.77778 0.55,0.0579 1,-2.07512 1,-4.74004 z m -430.6667,-31.15948 c 0,-0.52511 -5.44578,-5.93199 -12.10173,-12.01528 l -12.10174,-11.060535 -13.23158,13.181935 -13.23158,13.18193 12.33332,12.45694 12.33331,12.45694 13,-13.62359 c 7.15,-7.49297 13,-14.05322 13,-14.57834 z m 113.33335,12.56551 v -4.77261 l -4.33334,0.92837 c -2.38333,0.51059 -4.55256,1.1275 -4.82051,1.37089 -0.62401,0.56683 6.82488,7.14783 8.15385,7.20382 0.55,0.0232 1,-2.10553 1,-4.73047 z m 70,-13.13769 c 24.99664,-4.2241 58.52818,-8.53017 84.40369,-10.83899 l 9.73701,-0.86882 -0.41477,-2.190946 -0.41477,-2.190947 -4.90593,-0.408873 c -6.79512,-0.566324 -50.08402,4.413366 -79.73856,9.172636 -13.56667,2.17732 -25.76049,4.30053 -27.09737,4.71825 l -2.43071,0.7595 2.32108,2.56476 2.32108,2.56476 2.10962,-0.62674 c 1.1603,-0.34471 7.50963,-1.53928 14.10963,-2.65459 z m 150.18563,-15.378677 3.14772,-2.622308 -12.53999,-0.04436 -12.53998,-0.04436 2.4133,2.666667 2.4133,2.666666 h 6.97897 6.97897 z M 749.32468,9.3159149 c -0.48889,-0.4888889 -0.88889,-0.088889 -0.88889,0.8888891 0,0.977778 0.4,1.377778 0.88889,0.888889 0.48889,-0.488889 0.48889,-1.2888892 0,-1.7777781 z"
         id="path2" />
    </g>
  </g>
</svg>
